HIERARCHY
ROOT root
{
	OFFSET 0.000000 0.000000 0.000000
	CHANNELS 6 Xposition Yposition Zposition Zrotation Yrotation Xrotation
	JOINT lhip
	{
		OFFSET 0.058581 -0.082280 -0.017664
		CHANNELS 3 Zrotation Yrotation Xrotation
		JOINT lknee
		{
			OFFSET 0.043451 -0.386469 0.008037
			CHANNELS 3 Zrotation Yrotation Xrotation
			JOINT lankle
			{
				OFFSET -0.014790 -0.426874 -0.037428
				CHANNELS 3 Zrotation Yrotation Xrotation
				JOINT ltoe
				{
					OFFSET 0.041054 -0.060286 0.122042
					CHANNELS 3 Zrotation Yrotation Xrotation
					End Site
					{
						OFFSET 0.000000 0.000000 0.000000
					}
				}
			}
		}
	}
	JOINT rhip
	{
		OFFSET -0.060310 -0.090513 -0.013543
		CHANNELS 3 Zrotation Yrotation Xrotation
		JOINT rknee
		{
			OFFSET -0.043257 -0.383688 -0.004843
			CHANNELS 3 Zrotation Yrotation Xrotation
			JOINT rankle
			{
				OFFSET 0.019056 -0.420046 -0.034562
				CHANNELS 3 Zrotation Yrotation Xrotation
				JOINT rtoe
				{
					OFFSET -0.034840 -0.062106 0.130323
					CHANNELS 3 Zrotation Yrotation Xrotation
					End Site
					{
						OFFSET 0.000000 0.000000 0.000000
					}
				}
			}
		}
	}
	JOINT lowerback
	{
		OFFSET 0.004439 0.124404 -0.038385
		CHANNELS 3 Zrotation Yrotation Xrotation
		JOINT upperback
		{
			OFFSET 0.004488 0.137956 0.026820
			CHANNELS 3 Zrotation Yrotation Xrotation
			JOINT chest
			{
				OFFSET -0.002265 0.056032 0.002855
				CHANNELS 3 Zrotation Yrotation Xrotation
				JOINT lowerneck
				{
					OFFSET -0.013390 0.211636 -0.033468
					CHANNELS 3 Zrotation Yrotation Xrotation
					JOINT upperneck
					{
						OFFSET 0.010113 0.088937 0.050410
						CHANNELS 3 Zrotation Yrotation Xrotation
						End Site
						{
							OFFSET 0.000000 0.000000 0.000000
						}
					}
				}
				JOINT lclavicle
				{
					OFFSET 0.071702 0.114000 -0.018898
					CHANNELS 3 Zrotation Yrotation Xrotation
					JOINT lshoulder
					{
						OFFSET 0.122921 0.045205 -0.019046
						CHANNELS 3 Zrotation Yrotation Xrotation
						JOINT lelbow
						{
							OFFSET 0.255332 -0.015649 -0.022946
							CHANNELS 3 Zrotation Yrotation Xrotation
							JOINT lwrist
							{
								OFFSET 0.265709 0.012698 -0.007375
								CHANNELS 3 Zrotation Yrotation Xrotation
								End Site
								{
									OFFSET 0.000000 0.000000 0.000000
								}
							}
						}
					}
				}
				JOINT rclavicle
				{
					OFFSET -0.082954 0.112472 -0.023707
					CHANNELS 3 Zrotation Yrotation Xrotation
					JOINT rshoulder
					{
						OFFSET -0.113228 0.046853 -0.008472
						CHANNELS 3 Zrotation Yrotation Xrotation
						JOINT relbow
						{
							OFFSET -0.260127 -0.014369 -0.031269
							CHANNELS 3 Zrotation Yrotation Xrotation
							JOINT rwrist
							{
								OFFSET -0.269108 0.006794 -0.006027
								CHANNELS 3 Zrotation Yrotation Xrotation
								End Site
								{
									OFFSET 0.000000 0.000000 0.000000
								}
							}
						}
					}
				}
			}
		}
	}
}
MOTION
Frames: 16
Frame Time: 0.033333
1.172580 0.171919 0.991591 -87.244507 3.359281 86.484158 0.315359 -0.893177 6.590531 -2.696465 -14.042701 1.941623 7.055183 9.283253 -18.305650 0.000000 -0.000000 0.000000 4.350020 -3.300207 3.224382 3.358654 -0.622740 5.745320 3.021661 -3.905391 -11.612665 0.000000 -0.000000 0.000000 -2.918672 1.573587 9.100599 2.327895 -4.513496 5.335495 1.858135 -1.247771 5.712327 4.711374 -6.625906 10.684528 4.850713 -9.958182 11.904235 -21.835026 3.393410 2.690311 -66.192750 -11.054090 9.033228 15.165879 -29.739999 -6.629224 6.126568 -1.153827 -19.463976 20.126429 -2.021992 2.035575 65.980378 1.863537 11.490620 -21.482059 32.863604 1.129404 4.724487 0.507220 -0.892974 
1.175949 0.170930 0.990415 -87.548660 2.885833 88.040907 -0.281992 -0.762143 4.166284 -2.755951 -13.397195 2.797638 7.032268 8.901935 -18.308924 0.000000 -0.000000 0.000000 3.725053 -2.126357 0.626757 3.509909 -1.469982 7.111545 3.249285 -3.941085 -12.152461 0.000000 -0.000000 0.000000 -3.273958 1.820217 7.438291 2.429179 -4.488520 5.259618 1.386592 -0.919906 5.755634 5.257677 -6.363823 10.424048 4.487576 -10.323561 12.610977 -22.723790 3.356303 2.222253 -65.755622 -9.945616 10.138171 14.037856 -28.289602 0.903282 16.771038 -3.028266 -5.513462 20.699253 -2.613767 2.029276 65.744129 1.274169 10.947628 -22.032517 35.267742 2.937895 6.800354 1.667310 -0.767231 
1.175688 0.170519 0.990166 -87.227932 3.191639 88.106063 0.091617 -1.064017 4.212578 -2.816117 -13.117413 2.665941 7.157190 8.413451 -18.109057 0.000000 -0.000000 0.000000 4.007031 -1.954774 0.611464 3.581728 -1.935178 7.017828 2.902789 -3.868446 -11.430480 0.000000 -0.000000 0.000000 -3.263031 2.027729 6.821478 2.911476 -4.439518 6.466096 1.587364 -0.909799 4.975962 5.058353 -6.103056 10.530756 4.292162 -10.203514 12.543377 -22.668984 3.422328 2.721370 -67.266117 -9.432909 10.184496 14.969906 -29.116768 2.271468 -2.091565 -1.327749 -11.294385 20.653561 -3.536024 2.345033 65.988370 0.764540 10.359882 -26.319032 39.664503 1.844262 22.135217 0.470389 -0.536336 
1.176331 0.171110 0.989761 -87.417061 3.197902 88.108231 0.139495 -0.988523 4.324997 -2.903809 -13.478579 2.532120 7.080912 9.053870 -18.068583 0.000000 -0.000000 0.000000 4.053210 -1.547808 0.515331 3.564921 -1.657956 7.071002 2.685953 -4.540443 -12.021281 0.000000 -0.000000 0.000000 -3.103767 2.136530 6.994541 2.838699 -4.166395 5.743398 1.401572 -1.084502 5.482201 5.244982 -5.499158 11.183225 4.210571 -10.078540 11.498634 -22.398465 3.760026 3.108804 -66.806376 -9.102099 10.697012 12.942078 -30.334277 2.892057 6.502337 -0.980204 -13.523940 20.528270 -3.742241 2.920800 66.517226 0.380921 12.430268 -23.856255 44.842888 -2.347235 1.004632 2.291105 -8.942759 
1.176511 0.171469 0.989504 -87.360083 3.203252 88.076083 0.188645 -0.958152 4.439750 -2.926904 -13.555209 2.385318 7.074073 8.869767 -17.971743 0.000000 -0.000000 0.000000 4.034622 -1.477957 0.531854 3.563404 -1.785763 7.083677 2.736092 -4.450128 -11.956890 0.000000 -0.000000 0.000000 -3.123850 2.134199 7.019076 2.892424 -4.217759 5.732054 1.360791 -1.119071 5.482386 5.284446 -5.759053 11.374299 4.003729 -10.178301 11.596398 -22.515493 4.025530 3.201464 -66.691563 -8.949868 10.455407 12.696429 -30.709124 2.845905 6.884248 -1.272761 -13.200815 20.358942 -4.152935 2.916922 66.675972 0.105502 12.784946 -25.327217 48.839926 -3.160705 0.474888 3.460454 -9.980431 
1.176115 0.171620 0.989452 -87.244379 3.267278 87.789963 0.284095 -0.687299 4.833774 -2.864635 -13.603380 2.282720 7.035967 8.605122 -18.100969 0.000000 -0.000000 0.000000 4.108134 -1.755281 0.881692 3.510116 -1.838145 7.082761 2.517380 -4.389642 -12.132337 0.000000 -0.000000 0.000000 -3.069271 2.202715 7.084986 2.971864 -4.405041 5.975944 1.338698 -1.107642 5.474161 5.184239 -5.488804 11.424127 3.880146 -10.080075 11.714306 -22.470465 3.922919 3.267493 -66.766411 -8.697601 10.147703 12.385488 -30.747626 3.115327 7.478942 -1.404915 -13.058626 20.001540 -4.457745 2.798646 66.971334 -0.447766 13.348647 -28.121163 55.180021 -4.925453 -0.510818 5.054630 -11.924732 
1.176744 0.171684 0.989585 -87.405566 3.267977 87.547644 0.285560 -0.570142 5.118449 -2.830057 -13.360419 2.216515 6.944723 8.285516 -18.095442 0.000000 -0.000000 0.000000 4.099393 -1.606708 1.080279 3.474542 -1.989659 7.102690 2.436486 -4.088129 -11.975623 0.000000 -0.000000 0.000000 -3.029867 2.257472 7.274854 2.971981 -4.581428 6.203131 1.220361 -1.091503 5.441047 5.279923 -4.851963 11.174743 3.672907 -9.887034 11.946826 -22.337034 3.800381 3.130489 -66.865206 -8.210051 9.791103 12.353486 -30.717061 3.097565 7.737195 -2.066072 -12.938734 19.662578 -4.485506 2.468227 67.337383 -0.669307 14.269445 -33.261170 62.019858 -8.587349 -2.033501 7.085459 -13.286685 
1.175233 0.171248 0.990383 -86.710046 3.581503 86.825113 0.620191 -0.378125 6.003133 -2.712573 -13.862339 2.216629 6.679906 7.800177 -18.304430 0.000000 -0.000000 0.000000 4.421762 -2.248063 2.486974 3.468430 -1.876332 6.186830 2.538187 -4.196690 -12.058978 0.000000 -0.000000 0.000000 -2.662768 1.887080 7.754032 3.007869 -5.120205 6.485534 1.188975 -1.195524 5.391722 5.055120 -4.839446 11.684665 3.562748 -9.542225 11.615495 -22.495330 3.328773 3.344636 -66.830583 -7.850961 9.202013 12.380278 -30.279015 2.625890 8.674134 -2.144921 -13.034220 19.134778 -4.067418 2.063375 67.463750 -0.866333 15.138144 -41.246942 68.937740 -15.564706 -4.354926 8.481429 -15.733930 
1.177559 0.171708 0.990071 -87.443044 3.367596 87.275005 0.368666 -0.309223 5.323876 -2.725984 -13.248703 2.319628 6.834826 7.777905 -18.141949 0.000000 -0.000000 0.000000 4.202375 -1.558596 1.368985 3.487875 -2.189669 6.877010 2.368231 -3.890904 -12.193424 0.000000 -0.000000 0.000000 -2.929558 2.210522 7.331743 2.986886 -5.127830 6.371859 1.105303 -1.098606 5.395341 5.229168 -4.981233 11.574517 3.464571 -9.982324 11.568373 -22.347209 2.929310 3.324255 -66.893510 -7.391213 8.819234 12.455873 -29.801124 2.317009 9.002908 -1.645707 -12.720096 18.607270 -3.808472 1.700661 67.977152 -0.280003 16.221511 -55.624713 74.707705 -28.411360 -5.484364 8.891889 -17.094005 
1.178354 0.171808 0.990222 -87.648024 3.313052 87.143209 0.250149 -0.136513 5.373862 -2.557474 -12.974993 2.369251 6.745851 7.439230 -18.200364 0.000000 -0.000000 0.000000 4.131109 -1.451492 1.438531 3.473765 -2.377668 6.883833 2.378615 -3.648872 -12.229447 0.000000 -0.000000 0.000000 -2.995282 2.358059 7.326871 2.977949 -5.365532 6.583482 1.009494 -1.142010 5.249201 5.489654 -4.878791 11.610060 3.161730 -10.089228 11.848765 -22.301468 2.468759 3.355009 -66.875294 -6.836858 8.227371 12.390965 -29.245605 2.113012 8.881134 -1.764829 -12.377243 18.002732 -3.077010 1.075381 68.402005 0.812287 17.355396 -86.950548 78.492973 -58.157183 -6.323218 9.356425 -18.791848 
1.179001 0.172541 0.990293 -87.798642 3.361479 87.204881 0.392144 -0.106440 5.219960 -2.656073 -12.710086 2.438401 6.707985 7.323502 -18.154779 0.000000 -0.000000 0.000000 4.301485 -1.178472 1.315661 3.378685 -2.383387 6.859655 2.148693 -3.743346 -12.268214 0.000000 -0.000000 0.000000 -3.058943 2.442900 7.222221 3.021020 -5.459619 6.575763 0.920763 -1.155958 5.110990 5.782480 -5.378409 11.618913 2.946298 -10.531672 11.757824 -22.251842 2.105359 3.313612 -66.930804 -6.338266 7.841528 12.530350 -28.762301 2.177038 9.228984 -1.391479 -12.034643 17.303918 -2.444733 0.605649 69.122988 1.945972 18.189598 -112.106208 78.425480 -81.581646 -7.472072 9.022845 -18.308088 
1.179335 0.173245 0.990208 -87.871717 3.345562 87.262553 0.413222 -0.114541 5.110593 -2.619919 -12.438671 2.455273 6.690414 7.120387 -18.170601 0.000000 -0.000000 0.000000 4.373703 -0.966149 1.225131 3.314661 -2.548999 6.816102 2.193667 -3.640664 -12.209683 0.000000 -0.000000 0.000000 -3.150740 2.595603 7.199512 2.998763 -5.427590 6.313465 0.839242 -1.091802 5.057076 5.948458 -5.272407 11.745806 2.851699 -10.724846 12.052431 -22.076881 1.888519 3.378226 -66.943457 -6.071465 7.755638 12.455619 -28.406377 2.233460 9.150225 -1.918976 -12.039274 17.153510 -2.076576 0.237476 69.255966 2.989148 18.902599 -129.119580 76.669293 -98.172166 -8.244031 9.644759 -19.516846 
1.179501 0.173446 0.990245 -87.813697 3.282236 87.104261 0.298988 -0.039524 5.171189 -2.486572 -12.389240 2.593671 6.549407 6.904666 -18.196432 0.000000 -0.000000 0.000000 4.338065 -0.941287 1.420214 3.257570 -2.655716 6.742619 2.192614 -3.528841 -12.088408 0.000000 -0.000000 0.000000 -3.183611 2.813640 7.305079 2.990292 -5.430954 6.415853 0.812837 -1.075210 4.870719 6.136314 -5.529713 11.623158 2.772965 -11.018273 11.952835 -22.222338 1.576375 3.345060 -66.792241 -5.746618 7.552433 12.418808 -28.483895 2.098290 9.199152 -1.874833 -11.564249 17.012707 -1.471493 -0.088379 69.327318 3.715599 19.239416 -137.950372 74.702427 -106.725148 -8.967836 9.735653 -19.856423 
1.179359 0.173401 0.990154 -87.668674 3.276402 86.933897 0.243305 -0.015251 5.261995 -2.372398 -12.493749 2.674376 6.523694 6.892348 -18.213690 0.000000 -0.000000 0.000000 4.352161 -1.126137 1.684332 3.245973 -2.638737 6.600429 2.071253 -3.605854 -12.321944 0.000000 -0.000000 0.000000 -3.102155 2.963003 7.263131 2.920389 -5.450661 6.478998 0.745668 -1.009036 4.773576 6.170509 -5.594650 11.529547 2.635247 -11.196536 12.104136 -22.463220 1.327141 3.349699 -66.467351 -5.624800 7.355845 12.236539 -28.465250 1.947428 9.924640 -1.916029 -11.058566 17.041040 -0.946965 -0.166620 68.944663 4.250980 19.286801 -141.834595 73.442539 -110.427546 -10.402274 9.812045 -19.954816 
1.179081 0.173254 0.989837 -87.444227 3.142498 86.866337 0.061045 -0.218028 5.149665 -2.431613 -12.631887 3.032693 6.774053 7.131734 -18.369104 0.000000 -0.000000 0.000000 4.123878 -1.107896 1.524076 3.419006 -2.692657 7.115938 1.984808 -3.923080 -12.748228 0.000000 -0.000000 0.000000 -3.264049 3.013715 7.024390 2.894058 -5.425230 6.630206 0.729169 -0.890533 4.828061 6.136193 -5.554356 11.660237 2.577494 -11.120259 11.937562 -22.482611 1.369442 3.283494 -66.428497 -5.616906 7.446446 12.093187 -28.841994 1.924505 10.379126 -1.368740 -11.276092 17.309859 -0.762371 -0.170941 68.492185 4.518242 19.447588 -143.117648 72.398553 -111.919155 -12.089269 9.488787 -19.539521 
1.178395 0.173223 0.989941 -87.253066 3.068888 86.828041 -0.114703 -0.190686 4.971877 -2.407865 -13.024416 3.619520 6.847399 7.509366 -18.877012 0.000000 -0.000000 0.000000 4.051969 -1.153863 1.384535 3.389749 -2.638628 7.570205 2.221859 -4.015131 -13.215042 0.000000 -0.000000 0.000000 -3.216973 2.962447 7.842680 2.791310 -5.137538 5.078445 0.759825 -0.894550 4.840806 5.965221 -5.466530 12.114523 2.599097 -10.854311 12.261802 -22.754113 2.053754 3.299277 -66.141810 -5.370446 7.223499 11.529194 -29.244659 2.328854 11.177168 -1.720442 -11.074937 17.589280 -1.046792 0.190101 68.263278 4.054681 19.369308 -143.507332 72.274328 -112.249989 -13.150978 9.570897 -18.618483 
